<?xml version="1.0" standalone="no"?>
<svg xmlns:xlink="http://www.w3.org/1999/xlink" id="wave" style="transform:rotate(0deg); transition: 0.3s" viewBox="0 0 1440 450" version="1.1" xmlns="http://www.w3.org/2000/svg"><defs><linearGradient id="sw-gradient-0" x1="0" x2="0" y1="1" y2="0"><stop stop-color="rgba(220.445, 202.495, 196.731, 1)" offset="0%"/><stop stop-color="rgba(224.999, 219.042, 205.876, 1)" offset="100%"/></linearGradient></defs><path style="transform:translate(0, 0px); opacity:1" fill="url(#sw-gradient-0)" d="M0,135L60,135C120,135,240,135,360,172.5C480,210,600,285,720,307.5C840,330,960,300,1080,255C1200,210,1320,150,1440,127.5C1560,105,1680,120,1800,127.5C1920,135,2040,135,2160,157.5C2280,180,2400,225,2520,255C2640,285,2760,300,2880,300C3000,300,3120,285,3240,285C3360,285,3480,300,3600,277.5C3720,255,3840,195,3960,142.5C4080,90,4200,45,4320,60C4440,75,4560,150,4680,172.5C4800,195,4920,165,5040,172.5C5160,180,5280,225,5400,210C5520,195,5640,120,5760,120C5880,120,6000,195,6120,210C6240,225,6360,180,6480,172.5C6600,165,6720,195,6840,202.5C6960,210,7080,195,7200,225C7320,255,7440,330,7560,315C7680,300,7800,195,7920,150C8040,105,8160,120,8280,120C8400,120,8520,105,8580,97.5L8640,90L8640,450L8580,450C8520,450,8400,450,8280,450C8160,450,8040,450,7920,450C7800,450,7680,450,7560,450C7440,450,7320,450,7200,450C7080,450,6960,450,6840,450C6720,450,6600,450,6480,450C6360,450,6240,450,6120,450C6000,450,5880,450,5760,450C5640,450,5520,450,5400,450C5280,450,5160,450,5040,450C4920,450,4800,450,4680,450C4560,450,4440,450,4320,450C4200,450,4080,450,3960,450C3840,450,3720,450,3600,450C3480,450,3360,450,3240,450C3120,450,3000,450,2880,450C2760,450,2640,450,2520,450C2400,450,2280,450,2160,450C2040,450,1920,450,1800,450C1680,450,1560,450,1440,450C1320,450,1200,450,1080,450C960,450,840,450,720,450C600,450,480,450,360,450C240,450,120,450,60,450L0,450Z"/><defs><linearGradient id="sw-gradient-1" x1="0" x2="0" y1="1" y2="0"><stop stop-color="rgba(224.999, 224.999, 224.999, 1)" offset="0%"/><stop stop-color="rgba(232.588, 231.339, 228.58, 1)" offset="100%"/></linearGradient></defs><path style="transform:translate(0, 50px); opacity:0.9" fill="url(#sw-gradient-1)" d="M0,45L60,90C120,135,240,225,360,270C480,315,600,315,720,277.5C840,240,960,165,1080,127.5C1200,90,1320,90,1440,82.5C1560,75,1680,60,1800,67.5C1920,75,2040,105,2160,150C2280,195,2400,255,2520,247.5C2640,240,2760,165,2880,165C3000,165,3120,240,3240,255C3360,270,3480,225,3600,240C3720,255,3840,330,3960,345C4080,360,4200,315,4320,247.5C4440,180,4560,90,4680,82.5C4800,75,4920,150,5040,195C5160,240,5280,255,5400,277.5C5520,300,5640,330,5760,315C5880,300,6000,240,6120,247.5C6240,255,6360,330,6480,360C6600,390,6720,375,6840,375C6960,375,7080,390,7200,382.5C7320,375,7440,345,7560,277.5C7680,210,7800,105,7920,75C8040,45,8160,90,8280,90C8400,90,8520,45,8580,22.5L8640,0L8640,450L8580,450C8520,450,8400,450,8280,450C8160,450,8040,450,7920,450C7800,450,7680,450,7560,450C7440,450,7320,450,7200,450C7080,450,6960,450,6840,450C6720,450,6600,450,6480,450C6360,450,6240,450,6120,450C6000,450,5880,450,5760,450C5640,450,5520,450,5400,450C5280,450,5160,450,5040,450C4920,450,4800,450,4680,450C4560,450,4440,450,4320,450C4200,450,4080,450,3960,450C3840,450,3720,450,3600,450C3480,450,3360,450,3240,450C3120,450,3000,450,2880,450C2760,450,2640,450,2520,450C2400,450,2280,450,2160,450C2040,450,1920,450,1800,450C1680,450,1560,450,1440,450C1320,450,1200,450,1080,450C960,450,840,450,720,450C600,450,480,450,360,450C240,450,120,450,60,450L0,450Z"/></svg>