<?xml version="1.0" standalone="no"?>
<svg xmlns:xlink="http://www.w3.org/1999/xlink" id="wave" style="transform:rotate(0deg); transition: 0.3s" viewBox="0 0 1440 220" version="1.1" xmlns="http://www.w3.org/2000/svg"><defs><linearGradient id="sw-gradient-0" x1="0" x2="0" y1="1" y2="0"><stop stop-color="rgba(220.445, 202.495, 196.731, 1)" offset="0%"/><stop stop-color="rgba(224.999, 219.042, 205.876, 1)" offset="100%"/></linearGradient></defs><path style="transform:translate(0, 0px); opacity:1" fill="url(#sw-gradient-0)" d="M0,44L60,69.7C120,95,240,147,360,161.3C480,176,600,154,720,150.3C840,147,960,161,1080,150.3C1200,139,1320,103,1440,95.3C1560,88,1680,110,1800,113.7C1920,117,2040,103,2160,102.7C2280,103,2400,117,2520,102.7C2640,88,2760,44,2880,33C3000,22,3120,44,3240,44C3360,44,3480,22,3600,14.7C3720,7,3840,15,3960,47.7C4080,81,4200,139,4320,161.3C4440,183,4560,169,4680,165C4800,161,4920,169,5040,165C5160,161,5280,147,5400,139.3C5520,132,5640,132,5760,132C5880,132,6000,132,6120,128.3C6240,125,6360,117,6480,117.3C6600,117,6720,125,6840,139.3C6960,154,7080,176,7200,168.7C7320,161,7440,125,7560,110C7680,95,7800,103,7920,95.3C8040,88,8160,66,8280,51.3C8400,37,8520,29,8580,25.7L8640,22L8640,220L8580,220C8520,220,8400,220,8280,220C8160,220,8040,220,7920,220C7800,220,7680,220,7560,220C7440,220,7320,220,7200,220C7080,220,6960,220,6840,220C6720,220,6600,220,6480,220C6360,220,6240,220,6120,220C6000,220,5880,220,5760,220C5640,220,5520,220,5400,220C5280,220,5160,220,5040,220C4920,220,4800,220,4680,220C4560,220,4440,220,4320,220C4200,220,4080,220,3960,220C3840,220,3720,220,3600,220C3480,220,3360,220,3240,220C3120,220,3000,220,2880,220C2760,220,2640,220,2520,220C2400,220,2280,220,2160,220C2040,220,1920,220,1800,220C1680,220,1560,220,1440,220C1320,220,1200,220,1080,220C960,220,840,220,720,220C600,220,480,220,360,220C240,220,120,220,60,220L0,220Z"/><defs><linearGradient id="sw-gradient-1" x1="0" x2="0" y1="1" y2="0"><stop stop-color="rgba(224.999, 224.999, 224.999, 1)" offset="0%"/><stop stop-color="rgba(232.588, 231.339, 228.58, 1)" offset="100%"/></linearGradient></defs><path style="transform:translate(0, 50px); opacity:0.9" fill="url(#sw-gradient-1)" d="M0,0L60,18.3C120,37,240,73,360,84.3C480,95,600,81,720,77C840,73,960,81,1080,102.7C1200,125,1320,161,1440,172.3C1560,183,1680,169,1800,143C1920,117,2040,81,2160,80.7C2280,81,2400,117,2520,128.3C2640,139,2760,125,2880,99C3000,73,3120,37,3240,18.3C3360,0,3480,0,3600,14.7C3720,29,3840,59,3960,73.3C4080,88,4200,88,4320,99C4440,110,4560,132,4680,135.7C4800,139,4920,125,5040,124.7C5160,125,5280,139,5400,121C5520,103,5640,51,5760,36.7C5880,22,6000,44,6120,69.7C6240,95,6360,125,6480,135.7C6600,147,6720,139,6840,113.7C6960,88,7080,44,7200,47.7C7320,51,7440,103,7560,106.3C7680,110,7800,66,7920,44C8040,22,8160,22,8280,44C8400,66,8520,110,8580,132L8640,154L8640,220L8580,220C8520,220,8400,220,8280,220C8160,220,8040,220,7920,220C7800,220,7680,220,7560,220C7440,220,7320,220,7200,220C7080,220,6960,220,6840,220C6720,220,6600,220,6480,220C6360,220,6240,220,6120,220C6000,220,5880,220,5760,220C5640,220,5520,220,5400,220C5280,220,5160,220,5040,220C4920,220,4800,220,4680,220C4560,220,4440,220,4320,220C4200,220,4080,220,3960,220C3840,220,3720,220,3600,220C3480,220,3360,220,3240,220C3120,220,3000,220,2880,220C2760,220,2640,220,2520,220C2400,220,2280,220,2160,220C2040,220,1920,220,1800,220C1680,220,1560,220,1440,220C1320,220,1200,220,1080,220C960,220,840,220,720,220C600,220,480,220,360,220C240,220,120,220,60,220L0,220Z"/></svg>